<?xml version="1.0" standalone="no"?><!DOCTYPE svg PUBLIC "-//W3C//DTD SVG 1.1//EN" "http://www.w3.org/Graphics/SVG/1.1/DTD/svg11.dtd"><svg t="1521770276086" class="icon" style="" viewBox="0 0 1024 1024" version="1.1" xmlns="http://www.w3.org/2000/svg" p-id="2676" xmlns:xlink="http://www.w3.org/1999/xlink" width="200" height="200"><defs><style type="text/css"></style></defs><path d="M843.135234 348.890109c0-7.608282-6.195096-13.782911-13.81668-13.782911s-13.802354 6.17463-13.802354 13.782911c0 1.743714-0.014326 146.418744-0.040932 149.610436-2.719948 162.767084-138.863674 295.179836-303.502385 295.179836-165.350932 0-301.508985-132.992967-303.515688-296.405757-0.013303-2.584871-0.026606-147.083893-0.026606-148.384515 0-7.608282-6.166443-13.782911-13.789051-13.782911s-13.790074 6.17463-13.790074 13.782911c0 1.312902 0.107447 147.334603 0.12075 148.660808 2.127454 173.923168 138.110521 316.180126 317.372278 323.371922l0 111.647823-146.363486 0c-7.621585 0-13.790074 6.180769-13.790074 13.802354 0 7.609305 6.167466 13.790074 13.790074 13.790074l319.971475 0c7.621585 0 13.790074-6.180769 13.790074-13.790074 0-7.621585-6.167466-13.802354-13.790074-13.802354L525.923616 932.570661 525.923616 820.922838c179.26278-7.190773 314.328965-148.82863 317.210595-321.984319C843.16184 497.017774 843.135234 350.371856 843.135234 348.890109zM512.134565 677.574013c101.455693 0 179.26278-81.72635 179.26278-182.211948L691.397345 246.061139c0-100.477412-77.807087-182.224228-179.26278-182.224228-101.45467 0-179.26278 81.746816-179.26278 182.224228l0 249.300926C332.871785 595.847663 410.679895 677.574013 512.134565 677.574013zM360.45091 246.061139c0-85.268012 65.431222-154.638963 151.683654-154.638963s151.683654 69.37095 151.683654 154.638963l0 249.300926c0 85.268012-65.432245 154.646126-151.683654 154.646126s-151.683654-69.378114-151.683654-154.646126L360.45091 246.061139z" p-id="2677" fill="#8a8a8a"></path></svg>